<svg xmlns="http://www.w3.org/2000/svg" width="107" height="100" viewBox="0 0 107 100" fill="none">
  <path d="M75.1166 100H56.4011C46.7274 100 38.8887 92.1613 38.8887 82.4876V60.3267H68.0203V88.24C68.1497 89.9037 68.7055 93.9582 71.8502 97.377C72.958 98.58 74.1268 99.4214 75.1166 100Z" fill="url(#paint0_linear_11_763)"/>
  <path opacity="0.25" d="M43.2861 62.1731C43.5031 69.14 43.7201 76.107 43.9371 83.0739C44.1656 90.1931 47.4777 96.2844 52.7695 98.6638C54.022 99.2272 55.6743 99.9087 58.5486 99.7336C56.6908 99.3529 55.8266 98.679 55.0081 98.1612C49.4916 94.6892 48.2543 87.2198 47.7518 84.2008C47.6566 83.6183 47.5919 83.131 47.5538 82.815C47.2835 75.9699 47.0171 69.1248 46.7468 62.2797L43.2861 62.1731Z" fill="black"/>
  <path opacity="0.25" d="M68.0203 65.9573C63.5889 66.5131 58.712 66.8671 53.4545 66.8671C49.0002 66.8671 44.1234 66.6121 38.8887 65.9573V60.6388H68.0203V65.9573Z" fill="black"/>
  <path d="M53.5116 22.9566H53.4545C40.0003 22.9566 27.5627 23.7866 16.3242 25.0657V33.9476C16.3242 49.5946 29.2378 62.2797 45.1665 62.2797H61.7348C77.6635 62.2797 90.5771 49.5946 90.5771 33.9476V25.0734C79.3577 23.7904 66.9429 22.9566 53.5078 22.9528L53.5116 22.9566Z" fill="url(#paint1_linear_11_763)"/>
  <path d="M83.4014 21.411V34.1913C83.4014 45.7076 72.9853 55.0425 60.1365 55.0425H46.7737C33.9211 55.0425 23.5088 45.7076 23.5088 34.1913V21.4034C32.5734 20.4592 42.605 19.8501 53.4589 19.8501H53.5046C64.3395 19.8539 74.3559 20.4668 83.4052 21.411H83.4014Z" fill="#3E256B"/>
  <path opacity="0.25" d="M90.581 25.0885V29.6151C80.2867 27.7572 67.7463 26.2915 53.4546 26.2877C39.1629 26.2877 26.6186 27.7458 16.3281 29.5998V25.0771C20.6986 24.4793 26.7709 23.775 34.0614 23.3448C40.5334 22.9641 45.2503 22.9603 53.0624 22.9565C61.1067 22.9527 66.0978 22.9489 72.882 23.3486C80.2144 23.7827 86.2866 24.4946 90.5848 25.0847L90.581 25.0885Z" fill="black"/>
  <path d="M46.5563 35.0288C46.4116 43.6594 33.757 43.6556 33.6123 35.0288C33.757 26.3982 46.4116 26.402 46.5563 35.0288Z" fill="white"/>
  <path d="M73.4684 35.0289C73.3237 43.6595 60.6691 43.6557 60.5244 35.0289C60.6691 26.3983 73.3237 26.4021 73.4684 35.0289Z" fill="white"/>
  <path d="M57.2918 44.1202H57.2195C56.8464 44.1202 56.5076 44.3677 56.3857 44.7217C56.0698 45.6278 55.4949 46.355 54.7906 46.7509C54.4099 46.9641 53.9835 47.0859 53.5419 47.0859C53.1002 47.0859 52.6739 46.9641 52.2931 46.7509C51.585 46.3511 51.014 45.6278 50.698 44.7217C50.5762 44.3677 50.2373 44.1202 49.8642 44.1202H49.7919C49.1561 44.1354 48.6308 44.6532 48.627 45.289V45.3004C48.627 46.4654 49.2285 47.5123 50.1993 48.2471C51.0749 48.9171 52.2513 49.3245 53.5419 49.3245C54.8325 49.3245 56.0088 48.9171 56.8845 48.2471C57.8515 47.5123 58.4568 46.4654 58.4568 45.3004V45.289C58.4568 44.6532 57.9276 44.1354 57.2918 44.1202Z" fill="white"/>
  <path d="M106.91 11.642C106.91 19.7967 99.9277 26.1241 91.9481 25.2294C80.3061 23.9236 67.4496 23.0822 53.5653 23.0784C39.5934 23.0746 26.6646 23.916 14.9617 25.2294C6.97834 26.1241 0 19.7967 0 11.642V4.47712C15.095 1.9302 33.1557 -0.00759176 53.5615 2.23607e-05C73.876 0.00763648 91.8605 1.93782 106.906 4.47712V11.642H106.91Z" fill="url(#paint2_linear_11_763)"/>
  <defs>
    <linearGradient id="paint0_linear_11_763" x1="38.8163" y1="60.3952" x2="76.7689" y2="98.3478" gradientUnits="userSpaceOnUse">
      <stop offset="0.2" stop-color="#6948B8"/>
      <stop offset="1" stop-color="#BDA4F2"/>
    </linearGradient>
    <linearGradient id="paint1_linear_11_763" x1="53.4545" y1="67.1185" x2="53.4545" y2="38.4894" gradientUnits="userSpaceOnUse">
      <stop stop-color="#DC64C9"/>
      <stop offset="1" stop-color="#5531A8"/>
    </linearGradient>
    <linearGradient id="paint2_linear_11_763" x1="0" y1="12.6585" x2="106.91" y2="12.6585" gradientUnits="userSpaceOnUse">
      <stop offset="0.19" stop-color="#6948B8"/>
      <stop offset="1" stop-color="#BDA4F2"/>
    </linearGradient>
  </defs>
</svg>