<svg xmlns="http://www.w3.org/2000/svg" width="24" height="24" viewBox="0 0 24 24" fill="none">
  <path fill-rule="evenodd" clip-rule="evenodd" d="M19.6718 1.63593C21.2854 1.42515 22.616 2.75577 22.4052 4.36933C22.0967 6.72818 21.2485 10.7357 18.8535 13.3185C18.0915 14.14 17.1699 14.8981 16.2236 15.5725L16.5009 17.5109C16.5787 18.056 16.3949 18.6059 16.0058 18.9953L12.8242 22.1779C11.8046 23.1974 10.0589 22.6156 9.85443 21.1887L9.42962 18.218L9.4345 18.217C9.16282 18.0858 8.90979 17.9099 8.69036 17.6906L6.35052 15.3508C6.13104 15.1311 5.95531 14.8776 5.82415 14.6057L5.82318 14.6125L2.85345 14.1877C1.42608 13.9836 0.844633 12.2376 1.86419 11.218L5.04583 8.03534C5.4352 7.6463 5.98528 7.46348 6.53021 7.5412L8.46771 7.81757C9.14221 6.87107 9.90199 5.94967 10.7236 5.18769C13.3063 2.79277 17.313 1.94447 19.6718 1.63593ZM7.52044 19.7033C7.81337 19.4108 8.28823 19.4106 8.58099 19.7033C8.87361 19.9961 8.87344 20.471 8.58099 20.7639L7.16693 22.1779C6.87406 22.4705 6.3992 22.4706 6.10638 22.1779C5.81357 21.8851 5.81373 21.4103 6.10638 21.1174L7.52044 19.7033ZM5.39935 17.5812C5.6922 17.2889 6.16715 17.2888 6.4599 17.5812C6.7525 17.874 6.75226 18.3489 6.4599 18.6418L3.63177 21.4709C3.33899 21.7636 2.86411 21.7634 2.57122 21.4709C2.27836 21.178 2.27843 20.7032 2.57122 20.4103L5.39935 17.5812ZM3.27825 15.4601C3.57118 15.1678 4.04607 15.1674 4.3388 15.4601C4.63141 15.7529 4.63116 16.2278 4.3388 16.5207L2.92474 17.9348C2.63189 18.2276 2.15709 18.2275 1.86419 17.9348C1.57132 17.6419 1.57131 17.1671 1.86419 16.8742L3.27825 15.4601ZM16.5351 7.50507C15.7541 6.72444 14.4879 6.72427 13.707 7.50507C12.9259 8.28612 12.9259 9.55312 13.707 10.3342C14.4879 11.115 15.754 11.1148 16.5351 10.3342C17.3161 9.55312 17.3161 8.28612 16.5351 7.50507Z" fill="#F5F0FF"/>
</svg>