<svg xmlns="http://www.w3.org/2000/svg" width="24" height="24" viewBox="0 0 24 24" fill="none">
  <rect x="4" y="9.00006" width="16" height="12" rx="4" stroke="#A89ED3" stroke-width="1.5"/>
  <path d="M12 16L12 14" stroke="#A89ED3" stroke-width="1.5" stroke-linecap="round" stroke-linejoin="round"/>
  <path d="M14.6667 5.14235C14.9035 5.48223 15.371 5.56581 15.7108 5.32905C16.0507 5.09228 16.1343 4.62482 15.8975 4.28495L15.2821 4.71365L14.6667 5.14235ZM8.27819 4.04868C8.02082 4.37324 8.07528 4.84498 8.39984 5.10235C8.72439 5.35971 9.19613 5.30525 9.4535 4.9807L8.86584 4.51469L8.27819 4.04868ZM8 9.00006H8.75V7.00006H8H7.25V9.00006H8ZM8 7.00006H8.75C8.75 5.20514 10.2051 3.75006 12 3.75006V3.00006V2.25006C9.37665 2.25006 7.25 4.37671 7.25 7.00006H8ZM15.2821 4.71365L15.8975 4.28495C15.331 3.47176 14.5244 2.85612 13.5905 2.52427L13.3394 3.23097L13.0883 3.93768C13.7272 4.16474 14.2791 4.58596 14.6667 5.14235L15.2821 4.71365ZM13.3394 3.23097L13.5905 2.52427C12.6567 2.19242 11.6424 2.16097 10.6898 2.43432L10.8967 3.15523L11.1036 3.87614C11.7554 3.6891 12.4493 3.71062 13.0883 3.93768L13.3394 3.23097ZM10.8967 3.15523L10.6898 2.43432C9.73722 2.70768 8.89397 3.27216 8.27819 4.04868L8.86584 4.51469L9.4535 4.9807C9.87482 4.44939 10.4518 4.06317 11.1036 3.87614L10.8967 3.15523Z" fill="#A89ED3"/>
</svg>